<svg role="img" viewBox="0 0 24 24" xmlns="http://www.w3.org/2000/svg" id="Dlib--Streamline-Simple-Icons" height="24" width="24">
  <desc>
    Dlib Streamline Icon: https://streamlinehq.com
  </desc>
  <title>Dlib</title>
  <path d="M5.2188 0.0022c-0.5082 -0.01 -1.0158 0.015 -1.5223 0.046v23.9085c0.9724 0.068 1.954 0.055 2.9238 -0.032 0.2836 -0.9399 0.5742 -1.8784 0.8605 -2.8177 1.488 -0.2455 2.9172 -0.7078 4.192 -1.361 1.04 0.5022 2.0797 1.0049 3.12 1.5067a14.2125 14.2125 0 0 0 2.0759 -1.5805c-0.6353 -0.8301 -1.2734 -1.6589 -1.9098 -2.4884 0.8294 -1.02 1.4426 -2.1614 1.7261 -3.3565 1.1902 -0.2287 2.3801 -0.4583 3.5705 -0.6865a10.5282 10.5282 0 0 0 -0.0302 -2.2869c-1.1825 -0.2277 -2.3653 -0.4548 -3.5479 -0.6824 -0.2922 -1.1939 -0.8713 -2.3444 -1.7235 -3.3545 0.6384 -0.8293 1.2757 -1.6593 1.9148 -2.4884 -0.6128 -0.5881 -1.297 -1.117 -2.0432 -1.5984 -1.0537 0.5102 -2.1086 1.019 -3.1628 1.5285 -1.2667 -0.6671 -2.6973 -1.1432 -4.187 -1.3868C7.1875 1.9292 6.898 0.987 6.6103 0.0442c-0.463 -0.028 -0.927 -0.049 -1.3914 -0.042Zm2.33 5.388c3.6866 0.8142 6.464 3.7461 6.2778 6.8008 -0.0934 2.8969 -2.6816 5.6581 -6.2426 6.3976 -0.1694 -0.2268 -0.0253 -0.7803 -0.0734 -1.1335 -0.002 -4.0243 -0.003 -8.0486 -0.005 -12.073l0.0428 0.01z" fill="#000000" stroke-width="1"></path>
</svg>