<?xml version="1.0" standalone="no"?>
<!DOCTYPE svg PUBLIC "-//W3C//DTD SVG 20010904//EN"
 "http://www.w3.org/TR/2001/REC-SVG-20010904/DTD/svg10.dtd">
<svg version="1.0" xmlns="http://www.w3.org/2000/svg"
 width="1000.000000pt" height="1000.000000pt" viewBox="0 0 1000.000000 1000.000000"
 preserveAspectRatio="xMidYMid meet">

<g transform="translate(0.000000,1000.000000) scale(0.100000,-0.100000)"
fill="#000000" stroke="none">
<path d="M4795 9020 c-1345 -68 -2560 -796 -3259 -1953 -295 -488 -474 -1008
-552 -1599 -22 -167 -30 -617 -15 -800 61 -733 306 -1410 728 -2011 l77 -108
350 350 c304 304 349 353 340 368 -186 290 -272 462 -365 733 -71 205 -124
447 -150 680 -14 135 -14 475 0 610 76 696 365 1320 842 1814 843 876 2101
1170 3247 760 276 -98 632 -299 872 -490 110 -87 387 -364 474 -474 163 -205
344 -510 442 -745 465 -1125 218 -2417 -631 -3294 -501 -517 -1135 -831 -1855
-917 -160 -19 -497 -22 -650 -5 -505 56 -954 216 -1370 488 -63 42 -131 88
-151 104 l-35 28 -350 -350 c-204 -205 -345 -352 -339 -357 6 -4 56 -41 110
-83 580 -441 1244 -707 2005 -801 167 -21 739 -18 915 5 923 119 1740 519
2386 1168 1078 1084 1451 2682 963 4134 -179 535 -470 1022 -868 1458 -305
333 -735 656 -1155 866 -612 307 -1320 455 -2006 421z"/>
<path d="M4750 7115 c-398 -50 -779 -211 -1090 -462 -97 -79 -279 -267 -354
-367 -426 -569 -544 -1292 -320 -1966 255 -768 936 -1330 1740 -1435 132 -17
400 -20 524 -5 732 89 1349 527 1671 1185 226 463 276 974 144 1480 -197 756
-803 1346 -1570 1528 -226 54 -516 70 -745 42z m-911 -1056 c291 -67 424 -420
246 -653 l-32 -43 91 -141 c90 -140 91 -142 121 -135 37 10 180 10 220 1 30
-6 32 -4 123 137 l93 144 -35 46 c-116 151 -95 387 46 528 131 131 315 161
483 78 214 -106 292 -395 160 -591 -19 -29 -35 -57 -35 -62 0 -6 41 -73 91
-149 87 -132 93 -138 118 -131 35 9 178 9 217 -1 31 -8 31 -8 122 133 l92 141
-34 47 c-119 165 -105 379 34 526 238 252 648 128 711 -215 32 -176 -67 -362
-239 -446 -51 -25 -68 -28 -162 -28 -58 0 -114 3 -125 7 -17 7 -32 -11 -113
-137 l-94 -144 26 -33 c161 -212 84 -515 -162 -631 -60 -29 -77 -32 -157 -32
-49 0 -103 3 -120 8 -30 7 -31 5 -105 -109 -41 -64 -83 -129 -92 -143 -16 -25
-16 -27 23 -85 54 -80 72 -149 67 -252 -10 -195 -150 -349 -348 -386 -173 -32
-363 70 -441 237 -61 130 -46 302 36 409 19 26 35 48 35 51 0 2 -41 68 -91
145 l-92 141 -31 -8 c-17 -4 -71 -8 -121 -8 -80 1 -98 4 -158 32 -201 95 -294
319 -217 525 11 30 34 72 50 94 16 21 30 42 30 46 0 5 -41 71 -90 147 l-91
139 -37 -10 c-20 -6 -77 -8 -127 -6 -72 3 -102 10 -147 32 -166 79 -266 261
-239 433 37 240 272 405 500 352z"/>
<path d="M4771 5119 l-92 -140 41 -61 c50 -75 70 -142 70 -233 0 -91 -20 -158
-70 -232 -38 -57 -38 -59 -22 -84 9 -14 51 -79 92 -143 55 -85 79 -115 90
-110 48 20 204 19 251 0 12 -6 37 25 109 136 58 89 89 146 84 153 -82 106
-108 183 -102 304 5 96 32 171 86 232 l30 35 -91 142 c-91 139 -92 141 -122
134 -39 -9 -203 -9 -237 0 -25 8 -30 1 -117 -133z"/>
</g>
</svg>
