<?xml version="1.0" encoding="UTF-8"?>
<svg id="Layer_1" data-name="Layer 1" xmlns="http://www.w3.org/2000/svg" viewBox="0 0 280.28 418.06">
  <defs>
    <style>
      .cls-1 {
        fill: #87d1d7;
      }

      .cls-2 {
        fill: #54a4a1;
      }
    </style>
  </defs>
  <rect class="cls-1" x="40.17" width="24.75" height="24.75"/>
  <rect class="cls-1" x="68.45" width="24.75" height="24.75"/>
  <rect class="cls-1" x="40.17" y="62.14" width="24.75" height="24.75"/>
  <rect class="cls-1" x="40.17" y="93" width="24.75" height="24.75"/>
  <rect class="cls-1" x="11.45" y="93" width="24.75" height="24.75"/>
  <rect class="cls-1" x="68.45" y="31.07" width="24.75" height="24.75"/>
  <rect class="cls-1" x="68.45" y="122.14" width="24.75" height="24.75"/>
  <rect class="cls-1" x="68.45" y="153.21" width="24.75" height="24.75"/>
  <rect class="cls-1" x="40.17" y="153.21" width="24.75" height="24.75"/>
  <rect class="cls-1" x="11.45" y="153.21" width="24.75" height="24.75"/>
  <rect class="cls-1" x="68.45" y="184.29" width="24.75" height="24.75"/>
  <rect class="cls-1" x="68.45" y="215.36" width="24.75" height="24.75"/>
  <rect class="cls-1" x="40.17" y="215.36" width="24.75" height="24.75"/>
  <rect class="cls-1" x="11.45" y="31.07" width="24.75" height="24.75"/>
  <rect class="cls-2" x="98.88" width="84.86" height="55.82"/>
  <rect class="cls-2" x="100.49" y="81.16" width="59.14" height="38.52"/>
  <path class="cls-2" d="M227.44,378.18c-45.1,38.96-98.1,51.52-118.37,28.05-15.67-18.13-7.22-52.47,18.24-85.11-14.96,22.63-19.07,45.04-8.43,58.35,16.32,20.4,61.15,11.66,100.13-19.52,38.98-31.19,57.34-73,41.02-93.4-8.48-10.6-24.67-13.33-43.73-9.13,24.06-7.18,44.98-5.13,56.09,7.72,20.27,23.47.15,74.08-44.95,113.04Z"/>
  <g>
    <path class="cls-1" d="M5.25,319.18v-28.53H0v-7.87h5.25v-3.77c0-4.19,1.26-7.41,3.77-9.66,2.51-2.24,6.07-3.36,10.67-3.36.85,0,1.73.06,2.62.18.9.12,1.9.3,3,.52l-.84,8.38c-.61-.11-1.15-.2-1.63-.25-.48-.06-1.07-.08-1.77-.08-1.41,0-2.5.37-3.26,1.11-.76.74-1.14,1.79-1.14,3.16v3.77h7.07v7.87h-7.07v28.53H5.25Z"/>
    <path class="cls-1" d="M48.75,319.15c-.31-.58-.6-1.23-.86-1.95-.26-.72-.48-1.46-.66-2.22-1.08,1.5-2.38,2.7-3.9,3.58s-3.38,1.33-5.55,1.33c-3.45,0-6.26-1-8.43-3-2.17-2-3.25-4.65-3.25-7.97,0-3.61,1.35-6.4,4.05-8.36,2.7-1.96,6.81-2.94,12.33-2.94h4.14v-2.59c0-1.55-.36-2.74-1.09-3.57-.73-.83-1.86-1.25-3.38-1.25-1.3,0-2.27.31-2.91.93s-.96,1.58-.96,2.88l-11-.03-.07-.2c-.16-3.32,1.22-6.09,4.14-8.33,2.92-2.23,6.77-3.35,11.57-3.35,4.49,0,8.12,1.12,10.92,3.37,2.79,2.24,4.19,5.45,4.19,9.62v13.73c0,1.95.16,3.76.49,5.42.33,1.66.81,3.31,1.46,4.95l-11.24-.03ZM41.25,311.78c1.12,0,2.15-.22,3.1-.67.94-.45,1.7-1.03,2.29-1.75v-5.69h-4.04c-1.79,0-3.1.44-3.92,1.31s-1.23,1.99-1.23,3.33c0,1.03.35,1.87,1.06,2.51.71.64,1.62.96,2.74.96Z"/>
    <path class="cls-1" d="M83.34,308.96c0-.9-.51-1.7-1.53-2.41-1.02-.71-2.88-1.34-5.57-1.9-4.24-.83-7.44-2.12-9.59-3.87-2.15-1.75-3.23-4.14-3.23-7.17,0-3.21,1.35-5.93,4.04-8.16,2.69-2.23,6.34-3.35,10.93-3.35,4.84,0,8.7,1.08,11.57,3.25,2.87,2.17,4.24,4.96,4.1,8.39l-.07.2h-11.04c0-1.44-.37-2.52-1.09-3.26-.73-.74-1.9-1.11-3.52-1.11-1.19,0-2.19.33-3,.98-.81.65-1.21,1.48-1.21,2.49s.46,1.78,1.4,2.46c.93.67,2.81,1.28,5.64,1.82,4.44.88,7.73,2.18,9.87,3.92,2.14,1.74,3.21,4.2,3.21,7.38s-1.45,5.97-4.36,8.09c-2.91,2.12-6.75,3.18-11.52,3.18s-8.88-1.26-11.76-3.77c-2.88-2.51-4.26-5.32-4.12-8.41l.07-.2h10.3c.04,1.73.57,2.97,1.56,3.73,1,.76,2.42,1.14,4.26,1.14,1.53,0,2.68-.3,3.47-.89.78-.59,1.18-1.44,1.18-2.54Z"/>
    <path class="cls-1" d="M113.08,273.73v9.05h6.16v7.87h-6.16v16.69c0,1.3.26,2.24.79,2.81.53.57,1.24.86,2.14.86.72,0,1.28-.02,1.7-.07.41-.04.95-.13,1.6-.27l.81,8.41c-1.26.29-2.39.5-3.4.62-1.01.12-2.2.19-3.57.19-3.75,0-6.58-1-8.51-3-1.93-2-2.89-5.16-2.89-9.49v-16.76h-5.11v-7.87h5.11v-9.05h11.34Z"/>
    <path class="cls-1" d="M166.34,319.15c-.31-.58-.6-1.23-.86-1.95-.26-.72-.48-1.46-.66-2.22-1.08,1.5-2.38,2.7-3.9,3.58s-3.38,1.33-5.55,1.33c-3.45,0-6.26-1-8.43-3-2.17-2-3.25-4.65-3.25-7.97,0-3.61,1.35-6.4,4.05-8.36,2.7-1.96,6.81-2.94,12.33-2.94h4.14v-2.59c0-1.55-.36-2.74-1.09-3.57-.73-.83-1.86-1.25-3.38-1.25-1.3,0-2.27.31-2.91.93s-.96,1.58-.96,2.88l-11-.03-.07-.2c-.16-3.32,1.22-6.09,4.14-8.33,2.92-2.23,6.77-3.35,11.57-3.35,4.49,0,8.12,1.12,10.92,3.37,2.79,2.24,4.19,5.45,4.19,9.62v13.73c0,1.95.16,3.76.49,5.42.33,1.66.81,3.31,1.46,4.95l-11.24-.03ZM158.84,311.78c1.12,0,2.15-.22,3.1-.67.94-.45,1.7-1.03,2.29-1.75v-5.69h-4.04c-1.79,0-3.1.44-3.92,1.31s-1.23,1.99-1.23,3.33c0,1.03.35,1.87,1.06,2.51.71.64,1.62.96,2.74.96Z"/>
    <rect class="cls-1" x="182.46" y="282.78" width="11.41" height="36.4"/>
    <circle class="cls-1" cx="131.91" cy="313.77" r="5.62"/>
    <circle class="cls-1" cx="188.16" cy="274.98" r="5.62"/>
  </g>
</svg>